<svg width="1024" height="1024" xmlns="http://www.w3.org/2000/svg" class="icon">
 <defs>
  <style type="text/css"/>
 </defs>
 <g>
  <title>background</title>
  <rect fill="none" id="canvas_background" height="402" width="582" y="-1" x="-1"/>
 </g>
 <g>
  <title>Layer 1</title>
  <ellipse stroke="null" ry="456.000022" rx="456.000022" id="svg_2" cy="360.000022" cx="560.499977" stroke-opacity="null" stroke-width="null" fill="#ffffff"/>
  <path id="svg_1" fill="#d81e06" d="m560.1,326.9l-131.7,-136.4c-10.4,-10.7 -27.4,-10.9 -38.1,-0.5c-5.2,4.9 -8.2,11.7 -8.3,18.9c-0.2,7.2 2.6,14.1 7.5,19.2l131.7,136.4l-136.4,131.7c-10.7,10.4 -10.9,27.4 -0.5,38.1c4.9,5.2 11.7,8.2 18.9,8.3c7.2,0.2 14.1,-2.6 19.2,-7.5l136.4,-131.7l131.7,136.4c10.4,10.7 27.4,10.9 38.1,0.5c5.2,-4.9 8.2,-11.7 8.3,-18.9c0.2,-7.2 -2.6,-14.1 -7.5,-19.2l-131.7,-136.4l136.4,-131.7c10.7,-10.4 10.9,-27.4 0.5,-38.1c-4.9,-5.2 -11.7,-8.2 -18.9,-8.3c-7.2,-0.2 -14.1,2.6 -19.2,7.5l-136.4,131.7zm-289.7,317.3c-155.7,-161.3 -151.2,-418.2 10,-574c161.3,-155.7 418.2,-151.2 574,10c155.7,161.3 151.3,418.2 -10,574c-161.3,155.7 -418.2,151.3 -574,-10zm0,0"/>
 </g>
</svg>