<svg width="1024" height="1024" xmlns="http://www.w3.org/2000/svg" class="icon">
 <defs>
  <style type="text/css"/>
 </defs>
 <g>
  <title>background</title>
  <rect fill="none" id="canvas_background" height="402" width="582" y="-1" x="-1"/>
 </g>
 <g>
  <title>Layer 1</title>
  <ellipse stroke="null" ry="485.999986" rx="485.999986" id="svg_2" cy="507.999986" cx="599.499991" stroke-opacity="null" stroke-width="null" fill="#ffffff"/>
  <path stroke="null" id="svg_1" fill="#d81e06" d="m429.751176,642.072861l38.063505,38.169071l91.675536,-33.436951l-96.372774,-96.265372l-33.366267,91.533251zm170.054319,-533.753794c-222.35733,0 -402.568955,180.233656 -402.568955,402.571708c0,222.315103 180.212543,402.568955 402.568955,402.568955c222.315103,0 402.569873,-180.253852 402.569873,-402.568955c0,-222.338052 -180.254769,-402.571708 -402.569873,-402.571708zm-20.137444,558.661913l-0.214804,-0.250605c-1.112576,0.932655 -2.331636,1.79279 -3.765501,2.294918l-185.430268,67.664271c-4.839522,1.72027 -10.286739,0.572811 -13.869565,-3.155053c-3.653509,-3.583743 -4.838604,-9.031878 -3.046733,-13.831928l67.591752,-185.362338c0.503964,-1.396228 1.29158,-2.580405 2.258199,-3.727864l-0.145039,-0.178086l166.511884,-166.472412c18.063756,18.02612 32.934823,32.862303 32.934823,32.862303l-130.454137,130.241169c-2.114078,2.043395 -3.046733,4.730284 -3.046733,7.453893c0,2.687808 0.932655,5.377451 3.046733,7.455729c2.044313,2.005758 4.73212,3.117416 7.526412,3.117416c2.794292,0 5.448135,-1.111658 7.488775,-3.117416l130.38529,-130.16865l40.962445,40.893597l-129.808807,129.666522c-4.085871,4.119836 -4.085871,10.821914 0,14.942668c2.006676,1.972711 4.73212,3.082533 7.52733,3.082533c2.831928,0 5.482099,-1.109822 7.489693,-3.046733c0,-0.035801 129.773924,-129.665604 129.773924,-129.665604s19.067094,19.067094 32.757655,32.828339l-166.47333,166.47333zm233.456469,-233.348149l-51.967034,51.931234c-26.699072,-26.66419 -88.736206,-88.739877 -136.581568,-136.494361l52.0368,-52.001917c18.636568,-18.619126 49.100223,-18.654927 67.701908,0l68.810812,68.847531c18.63565,18.618208 18.600767,49.009344 -0.000918,67.717513z"/>
 </g>
</svg>