<?xml version="1.0" standalone="no"?><!DOCTYPE svg PUBLIC "-//W3C//DTD SVG 1.1//EN" "http://www.w3.org/Graphics/SVG/1.1/DTD/svg11.dtd">
<svg t="1557469468309"
  class="icon"
  style=""
  viewBox="0 0 1024 1024"
  version="1.1"
  xmlns="http://www.w3.org/2000/svg"
  p-id="1163"
  xmlns:xlink="http://www.w3.org/1999/xlink"
  width="200"
  height="200">
  <defs><style type="text/css"></style></defs>
  <path d="M323.608576 658.725888 366.068736 701.303808 468.333568 664.004608 360.828928 556.619776ZM513.3056 63.31904c-248.041472 0-449.069056 201.05216-449.069056 449.072128 0 247.994368 201.028608 449.069056 449.069056 449.069056 247.994368 0 449.07008-201.074688 449.07008-449.069056C962.37568 264.3712 761.299968 63.31904 513.3056 63.31904zM490.842112 686.511104l-0.239616-0.279552c-1.241088 1.040384-2.60096 1.999872-4.200448 2.56l-206.849024 75.480064c-5.398528 1.918976-11.474944 0.638976-15.471616-3.519488-4.07552-3.997696-5.397504-10.075136-3.398656-15.429632l75.399168-206.773248c0.562176-1.557504 1.440768-2.878464 2.51904-4.158464l-0.161792-0.198656L524.184576 348.490752c20.150272 20.108288 36.739072 36.658176 36.739072 36.658176l-145.522688 145.28512c-2.358272 2.279424-3.398656 5.276672-3.398656 8.31488 0 2.998272 1.040384 5.998592 3.398656 8.316928 2.280448 2.23744 5.27872 3.477504 8.395776 3.477504 3.117056 0 6.07744-1.240064 8.353792-3.477504L577.596416 401.861632l45.693952 45.617152L478.487552 592.12288c-4.557824 4.595712-4.557824 12.071936 0 16.668672 2.238464 2.200576 5.27872 3.438592 8.3968 3.438592 3.15904 0 6.115328-1.238016 8.354816-3.398656 0-0.039936 144.763904-144.643072 144.763904-144.643072s21.269504 21.269504 36.54144 36.620288L490.842112 686.511104zM751.264768 426.20928l-57.969664 57.929728c-29.78304-29.744128-98.985984-98.99008-152.357888-152.260608l58.047488-58.008576c20.789248-20.769792 54.771712-20.809728 75.522048 0l76.75904 76.8C772.054016 371.438592 772.015104 405.34016 751.264768 426.20928z"
    p-id="1164"
    fill="#d81e06">
  </path>
</svg>