<?xml version="1.0" standalone="no"?><!DOCTYPE svg PUBLIC "-//W3C//DTD SVG 1.1//EN" "http://www.w3.org/Graphics/SVG/1.1/DTD/svg11.dtd"><svg t="1558150606374" class="icon" style="" viewBox="0 0 1024 1024" version="1.1" xmlns="http://www.w3.org/2000/svg" p-id="1537" xmlns:xlink="http://www.w3.org/1999/xlink" width="200" height="200"><defs><style type="text/css"></style></defs><path d="M672.65 868.336l-324.348 0.138 0.066 155.526 324.348-0.138-0.066-155.526z m-310.552 141.918l-0.05-128.046 296.87-0.124 0.05 128.046-296.87 0.124z" fill="#4A555F" p-id="1538"></path><path d="M378.1 898.174h264.812v95.988H378.1z" fill="#FFD452" p-id="1539"></path><path d="M416.608 913.346a32.652 32.652 0 0 0-23.234 9.636 32.64 32.64 0 0 0-9.612 23.24c0.004 18.112 14.746 32.848 32.864 32.848h0.014c18.118-0.008 32.85-14.756 32.846-32.878-0.014-18.112-14.754-32.846-32.878-32.846z m0.024 51.984l-0.004 6.87v-6.87c-10.542 0-19.12-8.574-19.124-19.116a18.968 18.968 0 0 1 5.596-13.522 18.992 18.992 0 0 1 13.524-5.608c10.538 0 19.12 8.576 19.124 19.114 0.002 10.544-8.57 19.128-19.116 19.132zM680.94 599.088c-0.004-16.736-13.628-30.352-30.376-30.352l-12.184 0.006a30.22 30.22 0 0 0-18.672 6.446c-5.274-15.678-20.118-27.002-37.56-27.002l-16.972 0.006a39.444 39.444 0 0 0-29.17 12.88 39.61 39.61 0 0 0-14.124-16.912 39.376 39.376 0 0 0-22.148-6.768l-16.996 0.008c-1.338 0-2.656 0.078-3.958 0.208l-0.456 0.062c-1.114 0.124-2.214 0.29-3.282 0.502l-0.976 0.22c-6.298 1.414-11.7 3.902-16.2 7.48l-0.054-133.97c-0.01-26.278-21.4-47.654-47.7-47.654-26.284 0.012-47.658 21.408-47.65 47.694l0.062 151.444c-11.012-10.946-26.214-15.864-36.236-16.998l-7.648-0.866 0.098 226.872c0.004 14.298 4.96 28.262 14.2 39.624l31.182 38.29 25.23 31.896 248.272-0.106 43.402-83.044-0.084-199.966z m-51.642 269.28L396 868.466l-21.16-26.754-31.482-38.664a48.694 48.694 0 0 1-10.876-30.656l-0.09-210.696c11.07 3.208 30.136 12.168 30.148 35.826l13.74-0.008-0.076-185.574c-0.008-18.712 15.206-33.942 33.932-33.95 18.704 0 33.928 15.216 33.938 33.92l0.062 156.278c-0.022 0.438-0.018 0.898 0.004 1.426l10.116-0.222 3.358 0.952c0.062-0.198 0.156-0.388 0.242-0.582 0.21-0.484 0.416-0.968 0.676-1.678 3.314-9.014 9.204-14.188 18.512-16.278l0.648-0.152c0.706-0.14 1.422-0.248 2.446-0.374a25.88 25.88 0 0 1 2.602-0.142l17.004-0.008c5.184 0 10.17 1.524 14.442 4.412a25.838 25.838 0 0 1 11.41 21.43l0.112 14.462 13.288 3.174 0.438-8.232c0.73-13.704 12.04-24.442 25.748-24.448l16.982-0.006c14.254 0 25.85 11.598 25.86 25.85l0.004 11.344 13.74-0.004c-0.004-9.168 7.45-16.628 16.62-16.632l12.188-0.006c9.164 0 16.62 7.454 16.624 16.618l0.086 196.592-37.988 72.684z" fill="#4A555F" p-id="1540"></path><path d="M651.178 611.794a13.3 13.3 0 0 0-12.78-13.282h-0.004a0.596 0.596 0 0 0-0.594 0.594l-45.798 0.02-0.004-11.344a9.76 9.76 0 0 0-3.152-7.21 9.662 9.662 0 0 0-6.684-2.618l-16.974 0.006a9.762 9.762 0 0 0-9.744 9.244c-0.762 14.318-14.334 24.428-28.272 21.064l-0.034-0.008a22.954 22.954 0 0 1-17.564-22.172V586l-0.004-9.016a9.74 9.74 0 0 0-3.146-7.194 9.964 9.964 0 0 0-1.204-0.954 9.6 9.6 0 0 0-5.474-1.67l-17 0.008c-0.22 0.002-0.44 0.014-0.658 0.03 0 0-0.868 0.108-1.078 0.144l-0.572 0.13c-0.964 0.216-1.916 0.818-2.81 1.612-4.706 4.184-10.57 6.8-16.864 6.676-1.08-0.022-2.202-0.042-3.352-0.062-16.108-0.282-29.02-13.422-29.058-29.532l-0.31-133.818c-0.002-3.224-0.684-6.466-2.302-9.254-3.356-5.776-9.28-9.08-15.612-9.078a17.794 17.794 0 0 0-12.658 5.248 17.772 17.772 0 0 0-5.236 12.666l0.07 163.638c0.006 12.116-9.812 21.944-21.93 21.948-12.116 0.006-21.934 9.832-21.93 21.95l0.062 152.916a32.672 32.672 0 0 0 7.282 20.546l31.48 38.66 16.486 20.844 215.832-0.092 31.668-60.586-0.078-179.966z" fill="#DFDFDF" p-id="1541"></path><path d="M362.558 589.028h13.74v104.582h-13.74zM411.806 321.742c-50.012 0-90.698 40.686-90.698 90.696a90.672 90.672 0 0 0 22.138 59.38l10.386-8.998a76.906 76.906 0 0 1-18.784-50.382c0-42.434 34.522-76.956 76.958-76.956 42.43 0 76.954 34.522 76.954 76.956a76.986 76.986 0 0 1-18.27 49.786l10.474 8.894a90.724 90.724 0 0 0 21.534-58.678c0-50.012-40.686-90.698-90.692-90.698z" fill="#4A555F" p-id="1542"></path><path d="M592.71 133.254m-33.478 0a33.478 33.478 0 1 0 66.956 0 33.478 33.478 0 1 0-66.956 0Z" fill="#F58E6F" p-id="1543"></path><path d="M953.144 206.43m-33.478 0a33.478 33.478 0 1 0 66.956 0 33.478 33.478 0 1 0-66.956 0Z" fill="#DFDFDF" p-id="1544"></path><path d="M955.79 589.026m-46.232 0a46.232 46.232 0 1 0 92.464 0 46.232 46.232 0 1 0-92.464 0Z" fill="#FFD452" p-id="1545"></path><path d="M115.23 53.108m-46.232 0a46.232 46.232 0 1 0 92.464 0 46.232 46.232 0 1 0-92.464 0Z" fill="#FFD452" p-id="1546"></path><path d="M50.068 516.146m-28.092 0a28.092 28.092 0 1 0 56.184 0 28.092 28.092 0 1 0-56.184 0Z" fill="#F58E6F" p-id="1547"></path><path d="M632.648 127.528c-2.832-19.74-19.984-34.626-39.894-34.626-1.918 0-3.86 0.138-5.77 0.412a40.074 40.074 0 0 0-26.562 15.748 40.064 40.064 0 0 0-7.648 29.918c2.826 19.74 19.98 34.628 39.894 34.628 1.918 0 3.86-0.138 5.77-0.412a40.07 40.07 0 0 0 26.562-15.748 40.072 40.072 0 0 0 7.648-29.92z m-18.642 21.68a26.444 26.444 0 0 1-17.52 10.386c-1.266 0.182-2.55 0.274-3.82 0.274-13.126 0-24.434-9.818-26.298-22.836a26.434 26.434 0 0 1 5.046-19.73 26.434 26.434 0 0 1 17.518-10.384 26.924 26.924 0 0 1 3.82-0.274c13.122 0 24.428 9.818 26.298 22.836a26.432 26.432 0 0 1-5.044 19.728zM993.08 200.704c-2.832-19.74-19.982-34.626-39.894-34.626-1.918 0-3.86 0.138-5.77 0.412a40.074 40.074 0 0 0-26.562 15.748 40.064 40.064 0 0 0-7.648 29.918c2.832 19.74 19.984 34.626 39.894 34.626 1.918 0 3.86-0.138 5.77-0.412a40.074 40.074 0 0 0 26.562-15.748 40.064 40.064 0 0 0 7.648-29.918z m-18.642 21.68a26.444 26.444 0 0 1-17.518 10.386c-1.266 0.182-2.55 0.274-3.82 0.274-13.122 0-24.428-9.818-26.298-22.836a26.434 26.434 0 0 1 5.046-19.73 26.44 26.44 0 0 1 17.518-10.386 26.924 26.924 0 0 1 3.82-0.274c13.122 0 24.428 9.818 26.298 22.836a26.446 26.446 0 0 1-5.046 19.73zM955.788 535.924c-29.282 0-53.102 23.822-53.102 53.104 0 29.28 23.82 53.102 53.102 53.102 29.282 0 53.102-23.822 53.102-53.102 0-29.282-23.82-53.104-53.102-53.104z m0 92.466c-21.706 0-39.362-17.656-39.362-39.362 0-21.706 17.658-39.364 39.362-39.364s39.362 17.658 39.362 39.364c0 21.704-17.656 39.362-39.362 39.362zM167.792 45.572C164.07 19.592 141.498 0 115.286 0c-2.522 0-5.08 0.184-7.594 0.544-28.984 4.156-49.18 31.116-45.026 60.1 3.72 25.98 26.294 45.572 52.506 45.572 2.522 0 5.082-0.184 7.594-0.544 28.984-4.154 49.18-31.116 45.026-60.1z m-46.974 46.5c-1.87 0.268-3.77 0.404-5.644 0.404-19.42 0-36.146-14.524-38.91-33.782C73.186 37.21 88.16 17.224 109.64 14.144a39.932 39.932 0 0 1 5.644-0.404c19.42 0 36.146 14.524 38.91 33.784 3.078 21.484-11.896 41.468-33.376 44.548zM50.068 481.184c-19.276 0-34.958 15.684-34.958 34.962 0 19.278 15.68 34.962 34.958 34.962 19.276 0 34.962-15.684 34.962-34.962-0.002-19.278-15.686-34.962-34.962-34.962z m0 56.184c-11.7 0-21.218-9.52-21.218-21.222 0-11.702 9.518-21.222 21.218-21.222s21.222 9.52 21.222 21.222c0 11.702-9.522 21.222-21.222 21.222zM197.852 144.318l-10.358 9.026 9.026 10.358 10.358-9.026-9.026-10.358zM161.746 102.886l-10.358 9.026 9.026 10.358 10.358-9.026-9.026-10.358zM179.8 123.602l-10.358 9.026 9.026 10.358 10.358-9.026-9.026-10.358z m36.106 41.432l-10.358 9.026 9.026 10.358 10.358-9.026-9.026-10.358z m54.158 62.148l-10.358 9.028 8.756 10.048 10.358-9.028-8.756-10.048z m-18.052-20.716l-10.358 9.026 9.026 10.358 10.358-9.026-9.026-10.358z m-18.054-20.716l-10.358 9.026 9.026 10.358 10.358-9.026-9.026-10.358zM308.67 272.322l-10.358 9.026 9.026 10.358 10.358-9.026-9.026-10.358z m18.056 20.716l-10.358 9.026 9.026 10.358 10.358-9.026-9.026-10.358z m18.05 20.718l-10.358 9.026 9.026 10.358 10.358-9.026-9.026-10.358zM460.166 318.394l11.494 7.528 7.528-11.494-11.494-7.526-7.528 11.492z m37.636-57.47l-7.528 11.494 11.494 7.526 7.528-11.494-11.494-7.526z m-22.582 34.482l11.494 7.528 7.528-11.494-11.494-7.526-7.528 11.492zM730.188 291.038l5.25 12.698 12.698-5.248-5.25-12.698-12.698 5.248z m-25.396 10.498l5.25 12.698 12.698-5.248-5.25-12.698-12.698 5.248z m-25.394 10.496l5.25 12.698 12.698-5.248-5.25-12.698-12.698 5.248z m-25.394 10.498l5.25 12.698 12.698-5.248-5.25-12.698-12.698 5.248z m-25.396 10.496l5.25 12.698 12.698-5.248-5.25-12.698-12.698 5.248z m266.644-110.218l-12.698 5.248 5.25 12.698 12.698-5.248-5.25-12.698z m-38.092 15.744l5.25 12.698 12.698-5.248-5.25-12.698-12.698 5.248z m-101.578 41.99l5.25 12.698 12.698-5.25-5.25-12.698-12.698 5.25z m76.184-31.492l5.25 12.698 12.698-5.248-5.25-12.698-12.698 5.248z m-25.394 10.496l5.25 12.698 12.698-5.248-5.25-12.698-12.698 5.248z m-25.394 10.498l5.25 12.698 12.698-5.248-5.25-12.698-12.698 5.248zM694.216 510.502l13.002 4.442 4.446-13.002-13.002-4.442-4.446 13.002z m26.002 8.882l13.002 4.442 4.446-13.002-13.002-4.442-4.446 13.002z m-52.01-17.764l13.002 4.442 4.446-13.002-13.002-4.442-4.446 13.002z m-26.002-8.882l13.002 4.442 4.446-13.002-13.002-4.442-4.446 13.002z m-26.004-8.882l13.002 4.442 4.446-13.002-13-4.442-4.448 13.002z m238.482 66.938l-4.446 13.002 13.002 4.442 4.446-13.002-13.002-4.442z m-108.462-22.528l13.002 4.442 4.446-13.002-13.002-4.442-4.446 13.002z m78.012 26.646l13.006 4.442 4.438-13.002-13.006-4.442-4.438 13.002z m-26.006-8.88l13.002 4.442 4.446-13.002-13.002-4.442-4.446 13.002z m-26.004-8.884l13.002 4.442 4.446-13.002-13.002-4.442-4.446 13.002zM105.884 491.53l4.464 12.992 12.992-4.468-4.464-12.992-12.992 4.468z m25.984-8.934l4.464 12.992 12.992-4.466-4.464-12.992-12.992 4.466z m64.968-22.332l-12.992 4.468 4.464 12.992 12.992-4.468-4.464-12.992z m-38.978 13.4l4.464 12.992 12.992-4.468-4.464-12.992-12.992 4.468z" fill="#4A555F" p-id="1548"></path><path d="M411.806 209.014c-110.824 0-200.988 90.162-200.988 200.988 0 55.85 22.362 107.74 62.972 146.112l9.438-9.988c-37.834-35.748-58.67-84.092-58.67-136.124 0-103.25 83.998-187.25 187.25-187.25s187.248 84 187.248 187.25c0 42.412-13.828 82.41-39.988 115.672l10.796 8.494c28.086-35.706 42.932-78.642 42.932-124.164-0.002-110.826-90.168-200.99-200.99-200.99zM548.932 186.656l-7.644 11.416 11.414 7.644 7.644-11.414-11.414-7.646z m-22.94 34.242l11.414 7.648 7.648-11.416-11.414-7.648-7.648 11.416z" fill="#4A555F" p-id="1549"></path><path d="M509.364 448.48l13.074 4.232 4.232-13.07-13.072-4.232-4.234 13.07z m56.514 3.86l-4.232 13.07 13.074 4.232 4.232-13.07-13.074-4.232z m-30.374 4.604l13.074 4.232 4.232-13.07-13.072-4.232-4.234 13.07z" fill="#4A555F" p-id="1550"></path></svg>