<?xml version="1.0" standalone="no"?><!DOCTYPE svg PUBLIC "-//W3C//DTD SVG 1.1//EN" "http://www.w3.org/Graphics/SVG/1.1/DTD/svg11.dtd"><svg t="1558150764156" class="icon" style="" viewBox="0 0 1024 1024" version="1.1" xmlns="http://www.w3.org/2000/svg" p-id="2372" xmlns:xlink="http://www.w3.org/1999/xlink" width="200" height="200"><defs><style type="text/css"></style></defs><path d="M930.133333 742.4l-153.6-81.066667c21.333333-38.4 29.866667-85.333333 29.866667-132.266667 0-81.066667-34.133333-157.866667-89.6-209.066667l119.466667-119.466667c85.333333 85.333333 136.533333 200.533333 136.533333 332.8C981.333333 610.133333 964.266667 678.4 930.133333 742.4zM512 192c-34.133333 0-68.266667 4.266667-98.133333 12.8L362.666667 42.666667c46.933333-12.8 98.133333-21.333333 149.333333-21.333333 102.4 0 196.266667 29.866667 277.333333 81.066667l-98.133333 140.8C640 213.333333 580.266667 192 512 192zM217.6 580.266667c21.333333 123.733333 119.466667 226.133333 243.2 247.466667 110.933333 17.066667 213.333333-25.6 277.333333-98.133333l149.333333 85.333333c-98.133333 128-260.266667 209.066667-439.466667 183.466667-200.533333-25.6-362.666667-183.466667-396.8-384C12.8 405.333333 115.2 217.6 277.333333 128l85.333333 149.333333C260.266667 332.8 196.266667 448 217.6 580.266667z" p-id="2373"></path></svg>